# xmcd
#
# Track frame offsets:
# 150
# 20567
# 37316
# 52646
# 69294
# 88907
# 105956
# 122764
# 136531
# 155301
# 169093
# 185937
# 203418
# 220224
# 241160
# 257480
# 274988
# 287259
# 305793
#
# Disc length: 4304 seconds
#
#
# Revision: 0
# Processed by: cddbd v1.5.1PL2 Copyright (c) Steve Scherf et al.
# Submitted via: FreeRIP 2.943 
#
DISCID=0510ce13
DTITLE=SUCESSOS SERTANEJOS
DYEAR=2003
DGENRE=Country
TTITLE0=o amor e eu
TTITLE1=mulher bandida
TTITLE2=metade do meu coração
TTITLE3=vida vazia
TTITLE4=saudade bandida
TTITLE5=BANDIDA
TTITLE6=FEITO EU
TTITLE7=liguei pra dizer que te amo
TTITLE8=DESCULPA MAIS EU VOU CHORAR
TTITLE9=ME DA O SEU CORAÇÃO
TTITLE10=COMO EU TE AMO
TTITLE11=CORAÇÃO ESTA EM PEDAÇOS
TTITLE12=NEN DORMINDO CONSIGO TE ESQUECER
TTITLE13=PASSOU DA CONTA
TTITLE14=BRIGAS
TTITLE15=MAIS UMA VEZ
TTITLE16=SOLIDAO CASTIGA
TTITLE17=NAO TEM DEUS QUANDO SE AMA
TTITLE18=ELA NAO VEM MAIS
EXTD=
EXTT0=
EXTT1=
EXTT2=
EXTT3=
EXTT4=
EXTT5=
EXTT6=
EXTT7=
EXTT8=
EXTT9=
EXTT10=
EXTT11=
EXTT12=
EXTT13=
EXTT14=
EXTT15=
EXTT16=
EXTT17=
EXTT18=
PLAYORDER=
